<?xml version="1.0" encoding="iso-8859-1"?>
<!-- Uploaded to: SVG Repo, www.svgrepo.com, Generator: SVG Repo Mixer Tools -->
<svg fill="#000000" version="1.1" id="Capa_1" xmlns="http://www.w3.org/2000/svg" xmlns:xlink="http://www.w3.org/1999/xlink" 
	 viewBox="0 0 489.831 489.831" xml:space="preserve">
<g>
	<g>
		<g>
			<ellipse transform="matrix(0.7071 0.7071 -0.7071 0.7071 323.7668 88.819)" cx="54.669" cy="435.231" rx="70.299" ry="31.9"/>
			<polygon points="289.774,338.725 389.274,438.125 406.374,367.425 477.074,349.925 377.574,250.825 			"/>
			<path d="M28.674,362.025c19.8,3.5,42.4,16.7,62.6,36.9c21,21,33.4,43.1,36.9,62.6l115.7-115.8l-99.5-99.5L28.674,362.025z"/>
			
				<rect x="192.633" y="174.633" transform="matrix(0.7071 -0.7071 0.7071 0.7071 -101.4455 245.0531)" width="104.899" height="140.699"/>
			<path d="M458.074,32.125c-27.6-27.6-59.9-39.7-72.3-27.2l-139.5,139.5l99.5,99.5l139.1-139.2
				C497.274,91.925,485.274,59.725,458.074,32.125z"/>
		</g>
	</g>
</g>
</svg>